HIERARCHY
ROOT Hips
{
 OFFSET 0.000000 0.000000 0.000000
 CHANNELS 6 Xposition Yposition Zposition Yrotation Xrotation Zrotation
 JOINT Chest
 {
  OFFSET 0.000000 9.585900 0.002600
  CHANNELS 3 Yrotation Xrotation Zrotation
  JOINT Chest2
  {
   OFFSET 0.000000 9.601200 -0.005300
   CHANNELS 3 Yrotation Xrotation Zrotation
   JOINT Chest3
   {
    OFFSET 0.000000 9.561800 0.000000
    CHANNELS 3 Yrotation Xrotation Zrotation
    JOINT Chest4
    {
     OFFSET 0.000000 9.552100 0.000000
     CHANNELS 3 Yrotation Xrotation Zrotation
     JOINT Neck
     {
      OFFSET 0.000000 14.453000 0.000000
      CHANNELS 3 Yrotation Xrotation Zrotation
      JOINT Head
      {
       OFFSET 0.000000 8.936500 -0.011300
       CHANNELS 3 Yrotation Xrotation Zrotation
       End Site
       {
        OFFSET 0.000000 17.073600 -0.006000
       }
      }
     }
     JOINT RightCollar
     {
      OFFSET -2.921100 9.558500 0.000000
      CHANNELS 3 Yrotation Xrotation Zrotation
      JOINT RightShoulder
      {
       OFFSET -13.519700 0.000000 0.000000
       CHANNELS 3 Yrotation Xrotation Zrotation
       JOINT RightElbow
       {
        OFFSET 0.000000 -29.696600 0.000000
        CHANNELS 3 Yrotation Xrotation Zrotation
        JOINT RightWrist
        {
         OFFSET 0.000000 -24.004700 0.000000
         CHANNELS 3 Yrotation Xrotation Zrotation
         End Site
         {
          OFFSET 0.000000 -17.728500 0.000000
         }
        }
       }
      }
     }
     JOINT LeftCollar
     {
      OFFSET 2.921100 9.558500 0.000000
      CHANNELS 3 Yrotation Xrotation Zrotation
      JOINT LeftShoulder
      {
       OFFSET 13.519700 0.000000 0.000000
       CHANNELS 3 Yrotation Xrotation Zrotation
       JOINT LeftElbow
       {
        OFFSET 0.000000 -29.696600 0.000000
        CHANNELS 3 Yrotation Xrotation Zrotation
        JOINT LeftWrist
        {
         OFFSET 0.000000 -24.004700 0.000000
         CHANNELS 3 Yrotation Xrotation Zrotation
         End Site
         {
          OFFSET 0.000000 -17.728500 0.000000
         }
        }
       }
      }
     }
    }
   }
  }
 }
 JOINT RightHip
 {
  OFFSET -7.771700 -0.012900 -0.001300
  CHANNELS 3 Yrotation Xrotation Zrotation
  JOINT RightKnee
  {
   OFFSET 0.000000 -40.869800 0.001200
   CHANNELS 3 Yrotation Xrotation Zrotation
   JOINT RightAnkle
   {
    OFFSET 0.000000 -39.717900 0.002100
    CHANNELS 3 Yrotation Xrotation Zrotation
    JOINT RightToe
    {
     OFFSET 0.000000 -4.965400 11.033500
     CHANNELS 3 Yrotation Xrotation Zrotation
     End Site
     {
      OFFSET 0.000000 -1.423100 5.872300
     }
    }
   }
  }
 }
 JOINT LeftHip
 {
  OFFSET 7.771700 -0.012900 -0.001300
  CHANNELS 3 Yrotation Xrotation Zrotation
  JOINT LeftKnee
  {
   OFFSET 0.000000 -40.869800 0.001200
   CHANNELS 3 Yrotation Xrotation Zrotation
   JOINT LeftAnkle
   {
    OFFSET 0.000000 -39.717900 0.002100
    CHANNELS 3 Yrotation Xrotation Zrotation
    JOINT LeftToe
    {
     OFFSET 0.000000 -4.965400 11.033500
     CHANNELS 3 Yrotation Xrotation Zrotation
     End Site
     {
      OFFSET 0.000000 -1.423100 5.872300
     }
    }
   }
  }
 }
}
MOTION
Frames: 7
Frame Time: 0.008333
1.794530 52.224935 36.257805 171.062864 -37.329921 -2.135416 3.127674 22.949015 1.750339 0.397091 3.340600 0.352799 0.667926 5.336441 0.577309 2.712071 19.190986 2.444925 2.350217 16.240930 -0.145852 4.434904 -5.652556 -1.121379 -5.990944 -1.554315 -5.186272 0.813046 -4.154375 5.821984 163.271795 -81.671010 -148.582440 3.210208 -21.825036 -23.075875 -5.262853 0.052581 0.837930 9.590522 -3.429781 3.678030 164.699888 -61.675681 -179.954040 -5.502606 -27.373179 29.414949 -6.092273 -43.578747 4.247417 167.250644 86.953505 171.349405 -1.357724 -11.203260 -3.352475 0.063147 -0.211516 0.025249 1.647067 -40.391679 6.110425 71.133450 83.702127 60.964907 -6.051334 -12.964757 10.457577 0.347261 1.573349 0.157106
1.800872 52.221460 36.255882 171.054592 -37.320142 -2.130322 3.129114 22.959854 1.749503 0.394177 3.343109 0.353369 0.669488 5.339601 0.576745 2.708105 19.196386 2.443778 2.355040 16.230816 -0.153192 4.448809 -5.672178 -1.138464 -5.975782 -1.563571 -5.192308 0.815690 -4.149184 5.823577 163.333696 -81.648202 -148.648637 3.179050 -21.833033 -23.065856 -5.251580 0.030465 0.839145 9.590497 -3.431223 3.672091 164.670361 -61.653995 -179.936258 -5.509729 -27.371992 29.435644 -6.108147 -43.592286 4.271758 167.346808 86.944009 171.435804 -1.354520 -11.212484 -3.359662 0.059499 -0.208942 0.026157 1.656087 -40.402633 6.110540 71.171109 83.707578 61.003707 -6.044565 -12.972923 10.458968 0.347367 1.572294 0.156068
1.805859 52.217671 36.254211 171.050544 -37.307818 -2.122333 3.113574 22.988958 1.741643 0.400921 3.324597 0.351221 0.669101 5.344500 0.575434 2.688635 19.234294 2.448301 2.375390 16.178407 -0.174139 4.454470 -5.682217 -1.144925 -5.933064 -1.585623 -5.207643 0.818993 -4.167650 5.825355 163.521706 -81.650306 -148.839036 3.165311 -21.858969 -23.070872 -5.222801 -0.031374 0.828370 9.588431 -3.410848 3.662516 164.676058 -61.622488 -179.949799 -5.519112 -27.377079 29.452020 -6.123223 -43.610503 4.286699 167.409037 86.932286 171.489887 -1.355350 -11.219386 -3.367207 0.061159 -0.209803 0.026076 1.667702 -40.415782 6.102927 71.195421 83.711190 61.031493 -6.051870 -12.978054 10.459455 0.353097 1.574295 0.156682
1.810584 52.214085 36.252554 171.048269 -37.296570 -2.116643 3.106312 22.997117 1.736569 0.400240 3.326887 0.351297 0.665388 5.349816 0.576381 2.685786 19.238414 2.446300 2.381987 16.159371 -0.183679 4.471114 -5.692174 -1.162013 -5.917439 -1.594005 -5.209084 0.833487 -4.165696 5.818812 164.131861 -81.693043 -149.437140 3.217647 -21.895755 -23.081478 -5.210114 -0.050235 0.829187 9.572367 -3.401936 3.639576 164.721426 -61.605268 -179.985634 -5.516556 -27.397593 29.456155 -6.129825 -43.626996 4.293173 167.347075 86.920778 171.429386 -1.358509 -11.227921 -3.376627 0.061622 -0.209272 0.025781 1.674963 -40.428021 6.096477 71.225370 83.712793 61.063604 -6.053603 -12.981748 10.457907 0.350197 1.575022 0.157581
1.815234 52.211228 36.250435 171.047021 -37.290547 -2.113688 3.103169 23.010904 1.734487 0.400056 3.328946 0.351466 0.657421 5.377040 0.580227 2.690222 19.219664 2.440707 2.384570 16.169480 -0.189431 4.488119 -5.729833 -1.182026 -5.909665 -1.607331 -5.207865 0.865064 -4.146354 5.819069 164.409029 -81.683651 -149.726802 3.212948 -21.925705 -23.078017 -5.219101 -0.048952 0.834111 9.549723 -3.412545 3.597504 164.799503 -61.581212 179.956971 -5.520957 -27.411349 29.450709 -6.138224 -43.636658 4.299794 167.313086 86.909416 171.398234 -1.357790 -11.235947 -3.388987 0.061115 -0.209631 0.026993 1.680057 -40.434694 6.092630 71.268683 83.712817 61.111554 -6.065421 -12.985466 10.455906 0.351419 1.576513 0.158264
1.817596 52.207764 36.249305 171.051426 -37.276296 -2.104648 3.093963 23.012494 1.721410 0.399826 3.336035 0.352463 0.657755 5.380244 0.580560 2.690602 19.224425 2.441371 2.384726 16.162503 -0.195331 4.500315 -5.738029 -1.208722 -5.908194 -1.632008 -5.207385 0.890260 -4.120646 5.829758 164.548155 -81.667691 -149.870414 3.204480 -21.951665 -23.066961 -5.226946 -0.065437 0.838045 9.541184 -3.419488 3.578204 164.833110 -61.565604 179.932166 -5.530735 -27.452903 29.437523 -6.156780 -43.656511 4.303397 167.279366 86.897882 171.354845 -1.357126 -11.245157 -3.396928 0.058322 -0.209167 0.027040 1.695315 -40.445472 6.077639 71.231914 83.714107 61.073755 -6.080266 -12.993189 10.463251 0.355239 1.586215 0.159951
1.822192 52.205013 36.248490 171.034823 -37.265954 -2.099532 3.107929 23.020736 1.727461 0.399770 3.338031 0.352884 0.657598 5.383200 0.581163 2.689639 19.228960 2.442873 2.384651 16.158777 -0.199817 4.501290 -5.755358 -1.217612 -5.895944 -1.642434 -5.207129 0.900967 -4.109258 5.839138 164.546242 -81.639764 -149.879999 3.188229 -21.968023 -23.038252 -5.231672 -0.081989 0.838380 9.533890 -3.428414 3.561200 164.869340 -61.551637 179.905785 -5.534371 -27.448096 29.434455 -6.187223 -43.669598 4.341490 167.353750 86.890360 171.410589 -1.356916 -11.249506 -3.403629 0.058411 -0.208778 0.026098 1.708603 -40.453706 6.085081 71.263941 83.716647 61.103190 -6.081016 -13.009282 10.469563 0.343770 1.594352 0.157777
